HIERARCHY
ROOT root
{
	OFFSET 0.000000 0.000000 0.000000
	CHANNELS 6 Xposition Yposition Zposition Zrotation Yrotation Xrotation
	JOINT lhip
	{
		OFFSET 0.058581 -0.082280 -0.017664
		CHANNELS 3 Zrotation Yrotation Xrotation
		JOINT lknee
		{
			OFFSET 0.043451 -0.386469 0.008037
			CHANNELS 3 Zrotation Yrotation Xrotation
			JOINT lankle
			{
				OFFSET -0.014790 -0.426874 -0.037428
				CHANNELS 3 Zrotation Yrotation Xrotation
				JOINT ltoe
				{
					OFFSET 0.041054 -0.060286 0.122042
					CHANNELS 3 Zrotation Yrotation Xrotation
					End Site
					{
						OFFSET 0.000000 0.000000 0.000000
					}
				}
			}
		}
	}
	JOINT rhip
	{
		OFFSET -0.060310 -0.090513 -0.013543
		CHANNELS 3 Zrotation Yrotation Xrotation
		JOINT rknee
		{
			OFFSET -0.043257 -0.383688 -0.004843
			CHANNELS 3 Zrotation Yrotation Xrotation
			JOINT rankle
			{
				OFFSET 0.019056 -0.420046 -0.034562
				CHANNELS 3 Zrotation Yrotation Xrotation
				JOINT rtoe
				{
					OFFSET -0.034840 -0.062106 0.130323
					CHANNELS 3 Zrotation Yrotation Xrotation
					End Site
					{
						OFFSET 0.000000 0.000000 0.000000
					}
				}
			}
		}
	}
	JOINT lowerback
	{
		OFFSET 0.004439 0.124404 -0.038385
		CHANNELS 3 Zrotation Yrotation Xrotation
		JOINT upperback
		{
			OFFSET 0.004488 0.137956 0.026820
			CHANNELS 3 Zrotation Yrotation Xrotation
			JOINT chest
			{
				OFFSET -0.002265 0.056032 0.002855
				CHANNELS 3 Zrotation Yrotation Xrotation
				JOINT lowerneck
				{
					OFFSET -0.013390 0.211636 -0.033468
					CHANNELS 3 Zrotation Yrotation Xrotation
					JOINT upperneck
					{
						OFFSET 0.010113 0.088937 0.050410
						CHANNELS 3 Zrotation Yrotation Xrotation
						End Site
						{
							OFFSET 0.000000 0.000000 0.000000
						}
					}
				}
				JOINT lclavicle
				{
					OFFSET 0.071702 0.114000 -0.018898
					CHANNELS 3 Zrotation Yrotation Xrotation
					JOINT lshoulder
					{
						OFFSET 0.122921 0.045205 -0.019046
						CHANNELS 3 Zrotation Yrotation Xrotation
						JOINT lelbow
						{
							OFFSET 0.255332 -0.015649 -0.022946
							CHANNELS 3 Zrotation Yrotation Xrotation
							JOINT lwrist
							{
								OFFSET 0.265709 0.012698 -0.007375
								CHANNELS 3 Zrotation Yrotation Xrotation
								End Site
								{
									OFFSET 0.000000 0.000000 0.000000
								}
							}
						}
					}
				}
				JOINT rclavicle
				{
					OFFSET -0.082954 0.112472 -0.023707
					CHANNELS 3 Zrotation Yrotation Xrotation
					JOINT rshoulder
					{
						OFFSET -0.113228 0.046853 -0.008472
						CHANNELS 3 Zrotation Yrotation Xrotation
						JOINT relbow
						{
							OFFSET -0.260127 -0.014369 -0.031269
							CHANNELS 3 Zrotation Yrotation Xrotation
							JOINT rwrist
							{
								OFFSET -0.269108 0.006794 -0.006027
								CHANNELS 3 Zrotation Yrotation Xrotation
								End Site
								{
									OFFSET 0.000000 0.000000 0.000000
								}
							}
						}
					}
				}
			}
		}
	}
}
MOTION
Frames: 13
Frame Time: 0.033333
0.074328 -1.491704 0.997885 175.802344 0.420429 88.690854 1.268894 6.637658 6.843805 -2.812211 -2.942293 -3.968091 3.120315 10.714517 -12.954795 0.000000 -0.000000 0.000000 -2.633739 -3.053394 -7.528788 1.599033 -7.980011 19.693466 3.745601 -3.344954 -14.733676 0.000000 -0.000000 0.000000 1.582046 0.312513 3.031714 0.579614 1.281287 6.494256 -1.337584 0.882003 0.512752 0.513705 4.909234 2.289338 -3.540151 -4.902997 17.561693 -32.070646 1.477393 0.996546 -47.703527 -3.949299 11.843272 6.937306 -23.135079 12.815534 -8.575987 -6.564794 9.727630 32.023809 2.634814 3.667639 46.779903 3.935071 7.928785 -15.690816 24.161640 -19.357094 8.657542 10.087350 -22.646330 
0.073858 -1.496716 0.997718 175.653823 0.977719 89.378959 1.608567 6.433293 6.075636 -2.709179 -2.518004 -4.541352 3.511124 10.918125 -12.694852 0.000000 -0.000000 0.000000 -2.723112 -2.738215 -11.364319 2.150861 -8.257605 24.535610 4.880107 -3.952246 -14.730538 0.000000 -0.000000 0.000000 1.250386 -0.327009 3.642523 0.491188 1.398408 5.367060 -1.283538 0.530418 0.559868 0.803017 5.802566 1.526307 -4.088278 -4.240751 18.107625 -31.582932 1.829522 0.869900 -47.652834 -4.083008 11.834354 5.730364 -25.293229 12.882314 -14.242874 -6.482153 9.595758 32.230916 2.608094 3.772323 46.837457 4.278941 8.784681 -15.293126 25.326078 -19.932540 10.049350 10.008676 -20.470939 
0.074233 -1.501177 0.998541 176.170083 1.752982 90.201919 2.439984 5.815457 5.050319 -2.824266 -2.500960 -4.744431 3.662179 11.449135 -12.305251 0.000000 -0.000000 0.000000 -2.975074 -1.962007 -14.945463 2.991758 -9.460474 28.981896 5.235256 -4.353324 -14.142873 0.000000 -0.000000 0.000000 1.020103 -1.179635 3.505738 0.801975 1.097088 5.014654 -1.228541 0.238963 0.173233 0.618922 6.666696 1.957815 -4.020968 -3.661275 17.521429 -31.628750 1.781375 1.260159 -47.486933 -4.404864 12.053847 3.751078 -25.871089 9.373907 -15.713311 -7.396477 4.044193 32.713420 2.514758 3.990068 46.783073 4.551719 9.787422 -15.488211 26.176987 -20.384554 9.881286 10.420837 -19.847993 
0.073533 -1.502529 0.999511 174.781496 2.288803 89.867671 3.055099 5.918419 6.217909 -3.184116 -1.534289 -6.126693 4.139428 11.655975 -11.825244 0.000000 -0.000000 0.000000 -4.518044 -1.597438 -17.991845 4.551626 -9.549100 34.859969 7.141411 -2.898993 -14.407222 0.000000 -0.000000 0.000000 1.114484 -1.372330 3.817796 0.859876 1.467266 4.937937 -1.439816 0.352818 0.248472 0.263253 7.526741 2.103426 -4.228589 -2.820534 17.186339 -31.198785 1.475593 0.709391 -48.236672 -5.113558 12.494499 4.015672 -25.719357 4.729357 -10.498068 -7.475186 2.120009 32.991330 2.446784 3.886492 46.963752 4.792835 10.811329 -15.751721 26.990262 -21.159654 9.355127 10.360567 -18.903326 
0.073735 -1.502575 0.999779 174.527236 2.434633 89.781682 3.276925 6.119769 6.317802 -3.263159 -1.587152 -6.141083 4.155334 11.777919 -12.075971 0.000000 -0.000000 0.000000 -4.975066 -1.687611 -18.541672 4.868727 -9.353694 36.096711 7.449788 -2.287767 -14.750510 0.000000 -0.000000 0.000000 1.195125 -1.438051 4.071271 0.906815 1.499523 4.595699 -1.490732 0.285889 0.296193 0.189519 7.831452 1.920222 -4.408297 -2.664174 17.403002 -31.061249 1.551086 0.560238 -48.358116 -5.275106 12.392841 4.229503 -25.897614 4.621768 -10.485570 -7.319336 2.217888 32.929706 2.354291 3.798804 47.091728 4.781273 10.919845 -15.681239 27.140393 -21.107868 9.515534 10.371109 -18.962312 
0.074621 -1.501828 1.000358 174.409045 2.563182 89.517851 3.490089 6.246599 6.502409 -3.200217 -2.214178 -6.010377 3.977254 12.411552 -12.405027 0.000000 -0.000000 0.000000 -5.760438 -2.130786 -18.700130 4.739388 -8.716425 36.799650 7.534856 -2.551734 -15.985899 0.000000 -0.000000 0.000000 1.190276 -1.507986 4.184451 1.007671 1.293533 4.091084 -1.455068 0.222174 0.653191 -0.251402 8.123695 1.553385 -4.107259 -2.067311 17.928016 -30.694809 1.349331 0.629688 -48.882303 -6.012262 13.060039 3.307572 -25.446590 2.832238 -4.136679 -8.386210 -2.798467 32.976450 2.222491 3.628315 47.134570 4.841138 11.564813 -15.580929 27.009275 -21.327942 7.789621 10.565672 -19.624693 
0.076359 -1.500235 1.000773 174.538752 2.764395 89.476018 3.744933 6.185517 6.407377 -3.034513 -2.171639 -5.540490 3.916711 12.256990 -12.507381 0.000000 -0.000000 0.000000 -6.420520 -2.546311 -18.058194 3.580996 -9.032234 35.276239 6.942399 -4.337344 -16.614791 0.000000 -0.000000 0.000000 1.480369 -1.553815 3.794359 1.091400 1.083342 3.708793 -1.437906 0.156614 0.988942 -0.306723 8.156389 1.419470 -4.201057 -1.717543 18.241845 -30.809658 1.453569 0.683503 -48.682070 -7.024152 12.975827 2.987087 -25.203317 2.876968 -2.008516 -9.831657 -2.531097 33.182964 2.025047 3.619265 46.898269 4.807977 11.802372 -15.613851 26.580341 -21.734030 6.926573 10.640596 -19.642609 
0.079182 -1.498113 1.000521 174.776509 2.927491 89.771408 3.930306 5.928774 5.903691 -2.769214 -1.989969 -4.911507 3.862219 12.110619 -12.604812 0.000000 -0.000000 0.000000 -6.968726 -2.843960 -17.032115 2.386880 -9.101522 32.167161 6.261799 -5.588374 -16.869822 0.000000 -0.000000 0.000000 1.962461 -1.488185 2.921517 1.148694 0.827172 3.481255 -1.444588 0.027989 1.199715 -0.494500 8.196721 1.418572 -4.261086 -1.270235 18.294162 -30.854222 1.623722 0.894224 -48.634205 -7.835606 12.824205 2.704705 -25.044994 3.207234 -1.471964 -10.882807 -2.979372 33.199677 1.622176 3.697100 46.787821 4.882679 11.846872 -15.571558 26.039445 -21.535713 6.502490 10.702158 -19.682399 
0.083102 -1.495335 1.000166 174.829314 2.849758 90.244212 3.658011 5.950878 5.493262 -2.026332 -3.441972 -4.845198 4.534366 13.681385 -11.554843 0.000000 -0.000000 0.000000 -7.220291 -3.663023 -15.844461 1.659151 -7.524042 28.084011 4.358508 -6.168393 -14.639597 0.000000 -0.000000 0.000000 2.259921 -0.886225 0.772253 1.522622 -0.602174 8.185803 -1.772157 0.287336 -3.160685 -3.061224 6.416067 2.925150 -1.187815 1.433323 16.437949 -30.198799 0.887689 -0.834081 -49.953492 -5.073960 16.489265 5.667823 -26.139497 -2.837575 -2.677469 -10.705170 -2.509334 31.999305 3.213247 2.967313 48.025009 2.750817 11.145296 -15.225256 24.119725 -22.485380 7.392965 12.212214 -16.742592 
0.089400 -1.492291 0.998842 174.737400 2.721512 90.798269 3.784177 5.847983 5.192530 -1.861700 -3.226901 -4.984488 4.279089 13.703350 -11.307323 0.000000 -0.000000 0.000000 -7.478556 -3.209165 -14.439404 1.686154 -5.789691 23.952812 4.146393 -5.218695 -11.806919 0.000000 -0.000000 0.000000 2.369565 -0.516799 -0.813246 1.671708 -0.744357 8.968966 -1.761574 0.378648 -3.586234 -3.529593 6.292179 3.035523 -0.923580 1.696347 16.100395 -29.953144 0.807928 -0.859901 -50.173694 -5.109657 17.230769 5.725703 -26.148176 -2.939281 -2.900253 -12.450444 -1.778450 31.816106 3.116632 3.222582 48.065834 2.712259 10.896371 -14.968569 23.086793 -22.398788 7.630062 12.246599 -16.158838 
0.097627 -1.493051 0.996652 176.009621 2.915897 91.638432 4.612577 4.785199 3.451576 -1.967594 -3.033537 -3.759264 3.975906 13.312252 -11.262106 0.000000 -0.000000 0.000000 -6.843222 -2.889516 -13.424245 1.422269 -4.574263 20.799754 4.613583 -4.451067 -10.129979 0.000000 -0.000000 0.000000 2.665294 -0.333795 -0.690971 1.919767 -1.479073 7.310945 -1.570834 0.313733 -3.398561 -3.903373 6.025734 2.422780 -0.766275 2.135505 16.503550 -29.608128 0.895333 -0.952181 -50.558141 -5.420797 17.851358 5.688461 -26.428910 -2.252598 -2.619576 -13.035632 -2.203460 31.284516 2.782428 2.989145 48.451617 2.637632 11.116645 -14.752004 21.901695 -22.064651 7.619586 12.503473 -16.566511 
0.106897 -1.488911 0.995364 175.547757 2.712267 91.900574 4.903302 4.970820 3.608244 -1.831075 -2.788327 -3.898466 3.438621 13.426565 -11.197520 0.000000 -0.000000 0.000000 -6.340476 -2.633576 -11.780104 1.219470 -4.493127 17.751423 4.399546 -4.068330 -9.788431 0.000000 -0.000000 0.000000 3.032071 -0.034173 -1.735614 1.737002 -1.091129 7.352769 -1.637742 0.550824 -3.308986 -4.014790 6.234735 2.720201 -0.897200 2.147411 16.133560 -29.644156 0.872585 -0.903406 -50.455353 -5.377997 17.692957 5.929930 -27.013214 -2.443789 -2.848475 -12.242283 -2.496400 31.278808 2.754364 3.460878 48.472520 2.669286 10.940110 -14.491636 20.848827 -21.603747 7.868486 11.927443 -16.075863 
0.117096 -1.487522 0.995570 176.085348 2.588126 92.012867 5.413108 4.628664 3.281318 -1.707570 -2.713157 -3.418843 2.912534 13.274909 -10.922925 0.000000 -0.000000 0.000000 -5.531541 -2.906954 -9.987646 1.028685 -5.481479 14.602821 3.605925 -4.744675 -9.203525 0.000000 -0.000000 0.000000 3.586442 -0.016557 -1.616005 1.464638 -1.183564 6.714879 -1.673945 0.654739 -3.209504 -4.369990 6.163477 2.474261 -0.927124 2.299271 16.183204 -30.107721 0.859117 -0.701799 -50.080927 -5.710164 17.283680 6.139698 -27.043519 -2.234890 -2.771492 -12.249090 -2.512355 31.209992 2.863224 3.683372 48.629617 2.694408 10.732385 -14.289464 19.986485 -20.658917 8.187087 11.656303 -15.874472 
